M48
;GenerationSoftware,Autodesk,EAGLE,9.7.0*%
;CreationDate,2025-04-05T18:05:49Z*%
FMAT,2
ICI,OFF
METRIC,TZ,000.000
T3C0.300
T2C0.350
T1C0.650
%
G90
M71
T1
X163867Y20200
X163867Y25980
T2
X42800Y43100
X41000Y43100
X55400Y41300
X41000Y41300
X42800Y41300
X44600Y41300
X46400Y41300
X48200Y41300
X50000Y41300
X51800Y41300
X55400Y46700
X53600Y46700
X51800Y46700
X50000Y46700
X48200Y46700
X46400Y46700
X44600Y43100
X44600Y46700
X41000Y46700
X55400Y44900
X53600Y44900
X51800Y44900
X50000Y44900
X48200Y44900
X46400Y44900
X44600Y44900
X42800Y44900
X41000Y44900
X55400Y43100
X53600Y43100
X51800Y43100
X50000Y43100
X48200Y43100
X46400Y43100
X53600Y41300
X42800Y46700
T3
X32625Y24375
X15125Y24000
X80750Y12125
X84500Y15875
X85750Y-11500
X88625Y-14375
X80125Y2625
X92750Y-18750
X96875Y-22875
X61100Y75250
X147500Y-19500
X161750Y21375
X153875Y-24375
X166500Y20750
X150125Y-21500
X165000Y20750
X160625Y21375
X163750Y24500
X109375Y8250
X26500Y19000
X143375Y-11125
X28750Y21750
X134375Y-16500
X135500Y-15875
X126375Y625
X11000Y19750
X11000Y51250
X101625Y-7500
X92625Y-5125
X100875Y3125
X24000Y18000
X17750Y17875
X14625Y41375
X92625Y8375
X83125Y-10750
X102875Y-3125
X12625Y52625
X12625Y15875
X15125Y9875
X21250Y18500
X32125Y18500
X6500Y63825
X7625Y33375
X94250Y14000
X36500Y69000
X28375Y77125
X10500Y19250
X16125Y13500
X32250Y7375
X71375Y16375
X72875Y15875
X70125Y17500
X17375Y15875
X85125Y-11500
X76250Y-12000
X9875Y30500
X9875Y7125
X84125Y-8875
X14375Y12250
X101875Y15125
X83625Y-9875
X100875Y-4500
X19875Y13500
X110375Y15125
X33625Y15875
X22125Y15875
X106625Y6000
X47625Y66500
X54375Y72625
X58125Y20750
X73000Y20125
X22125Y31000
X121500Y31000
X131750Y-23875
X163550Y-12000
X54250Y76250
X129500Y31250
X18750Y33375
X69375Y29750
X20500Y28750
X132875Y-24375
X132125Y2375
X127875Y29250
X68767Y28150
X163655Y-11105
X84625Y-9500
X109875Y21250
X25500Y22500
X23750Y34875
X44750Y76875
X77625Y-16875
X81750Y-18000
X79625Y3125
X132250Y31250
X76750Y-8625
X78625Y1500
X112375Y-14750
X110500Y-14750
X77625Y-16250
X85500Y-17875
X78625Y-10500
X78250Y-9125
X79750Y-11500
X81500Y-10375
X80125Y-13125
X76625Y-18250
X80750Y-13125
X89125Y-16625
X49500Y67500
X52375Y67500
X54875Y70500
X79125Y-10875
M30