G04 EAGLE Gerber RS-274X export*
G75*
%MOMM*%
%FSLAX34Y34*%
%LPD*%
%INSolderpaste Top*%
%IPPOS*%
%AMOC8*
5,1,8,0,0,1.08239X$1,22.5*%
G01*
G04 Define Apertures*
%ADD10R,1.400000X1.050000*%
%ADD11R,0.700000X0.900000*%
%ADD12R,0.900000X0.700000*%
%ADD13R,2.200000X2.000000*%
%ADD14R,0.800000X0.800000*%
%ADD15R,0.600000X1.200000*%
%ADD16R,0.900000X0.800000*%
%ADD17R,1.150000X0.800000*%
%ADD18R,0.900000X0.600000*%
%ADD19R,0.300000X0.800000*%
%ADD20R,0.400000X0.800000*%
%ADD21R,1.150000X0.300000*%
%ADD22R,2.000000X2.180000*%
%ADD23R,1.200000X1.800000*%
%ADD24R,1.900000X1.400000*%
%ADD25R,1.500000X0.700000*%
%ADD26R,0.127000X0.127000*%
%ADD27R,0.550000X1.200000*%
%ADD28R,3.600000X1.500000*%
%ADD29R,0.800000X0.900000*%
%ADD30R,0.500000X1.050000*%
%ADD31C,0.125000*%
%ADD32R,1.168400X1.600200*%
%ADD33R,0.900000X1.500000*%
%ADD34C,0.147500*%
%ADD35R,0.560000X0.820000*%
%ADD36C,0.067500*%
%ADD37R,1.400000X1.400000*%
%ADD38R,0.970000X0.940000*%
%ADD39R,2.000000X1.200000*%
%ADD40R,1.350000X0.600000*%
%ADD41R,1.010000X1.460000*%
%ADD42C,0.110000*%
D10*
X506970Y775980D03*
X471970Y775980D03*
X471970Y760980D03*
X506970Y760980D03*
D11*
X1214300Y324400D03*
X1227300Y324400D03*
D12*
X683120Y775510D03*
X683120Y762510D03*
D11*
X1141800Y-206300D03*
X1154800Y-206300D03*
X1257200Y13260D03*
X1244200Y13260D03*
D12*
X1242060Y91200D03*
X1242060Y78200D03*
D11*
X1214300Y295000D03*
X1227300Y295000D03*
X1229200Y-175300D03*
X1216200Y-175300D03*
D13*
X1198200Y86200D03*
X1198200Y56200D03*
D12*
X894330Y94440D03*
X894330Y81440D03*
X1421500Y-247120D03*
X1421500Y-260120D03*
X274710Y773630D03*
X274710Y760630D03*
X1611500Y-258750D03*
X1611500Y-245750D03*
X533300Y774500D03*
X533300Y761500D03*
X931800Y138400D03*
X931800Y151400D03*
X50300Y691700D03*
X50300Y678700D03*
D10*
X656640Y775750D03*
X621640Y775750D03*
X621640Y760750D03*
X656640Y760750D03*
D14*
X1081220Y-117910D03*
X1066220Y-117910D03*
D12*
X532350Y675680D03*
X532350Y688680D03*
D15*
X1519800Y-200000D03*
X1510300Y-200000D03*
X1500800Y-200000D03*
X1500800Y-225000D03*
X1510300Y-225000D03*
X1519800Y-225000D03*
D16*
X1356960Y-150790D03*
X1356960Y-171790D03*
D17*
X795600Y121000D03*
X830600Y121000D03*
X831600Y65900D03*
X796600Y65900D03*
X796600Y15100D03*
X831600Y15100D03*
D12*
X887820Y-83830D03*
X887820Y-96830D03*
X789920Y-97230D03*
X789920Y-84230D03*
X826180Y-172560D03*
X826180Y-185560D03*
X862280Y-172560D03*
X862280Y-185560D03*
X857340Y-83830D03*
X857340Y-96830D03*
X789000Y-174560D03*
X789000Y-187560D03*
X899830Y-187230D03*
X899830Y-174230D03*
X758070Y-174040D03*
X758070Y-187040D03*
X821280Y-83770D03*
X821280Y-96770D03*
X758360Y-97230D03*
X758360Y-84230D03*
D18*
X509150Y676230D03*
X509150Y685730D03*
X509150Y695230D03*
X481150Y695230D03*
X481150Y676230D03*
X1265100Y91400D03*
X1265100Y81900D03*
X1265100Y72400D03*
X1293100Y72400D03*
X1293100Y91400D03*
D19*
X891500Y-123700D03*
X886500Y-123700D03*
X881500Y-123700D03*
X876500Y-123700D03*
X871500Y-123700D03*
X866500Y-123700D03*
X861500Y-123700D03*
X856500Y-123700D03*
X851500Y-123700D03*
X846500Y-123700D03*
X841500Y-123700D03*
X836500Y-123700D03*
X831500Y-123700D03*
X826500Y-123700D03*
X821500Y-123700D03*
X816500Y-123700D03*
X811500Y-123700D03*
X806500Y-123700D03*
X801500Y-123700D03*
X796500Y-123700D03*
X791500Y-123700D03*
X786500Y-123700D03*
X781500Y-123700D03*
X776500Y-123700D03*
D20*
X901500Y-148700D03*
X766500Y-148700D03*
D21*
X1627920Y197400D03*
X1627920Y205400D03*
X1627920Y218400D03*
X1627920Y228400D03*
X1627920Y233400D03*
X1627920Y243400D03*
X1627920Y256400D03*
X1627920Y264400D03*
X1627920Y261400D03*
X1627920Y253400D03*
X1627920Y248400D03*
X1627920Y238400D03*
X1627920Y223400D03*
X1627920Y213400D03*
X1627920Y208400D03*
X1627920Y200400D03*
D22*
X1672970Y179800D03*
X1672970Y282000D03*
X1633670Y179800D03*
X1633670Y282000D03*
D23*
X154770Y530000D03*
X154770Y587000D03*
D24*
X12270Y500000D03*
X22270Y631500D03*
D25*
X50770Y548000D03*
X54770Y559000D03*
X50770Y570000D03*
X48770Y581000D03*
X50770Y592000D03*
X48770Y603000D03*
X50770Y614000D03*
X50770Y625000D03*
D23*
X154770Y558500D03*
X154770Y615500D03*
D26*
X709240Y109500D03*
X754960Y109500D03*
D27*
X1097700Y-178001D03*
X1107200Y-178001D03*
X1116700Y-178001D03*
X1116700Y-151999D03*
X1097700Y-151999D03*
D28*
X1550500Y-223400D03*
X1550500Y-268400D03*
D16*
X1316850Y-184660D03*
X1316850Y-165660D03*
X1295850Y-175160D03*
D29*
X589400Y210500D03*
X608400Y210500D03*
X598900Y231500D03*
D30*
X658900Y37400D03*
X671900Y37400D03*
X665400Y58400D03*
D12*
X582000Y-195900D03*
X582000Y-182900D03*
D11*
X1329100Y319600D03*
X1316100Y319600D03*
D12*
X1059960Y-159050D03*
X1059960Y-172050D03*
D11*
X1375210Y-104990D03*
X1362210Y-104990D03*
D12*
X433300Y265100D03*
X433300Y252100D03*
D11*
X1329100Y300000D03*
X1316100Y300000D03*
D12*
X1428680Y-181530D03*
X1428680Y-194530D03*
X1463680Y-181350D03*
X1463680Y-194350D03*
X1149300Y-160400D03*
X1149300Y-147400D03*
D11*
X668230Y-20330D03*
X681230Y-20330D03*
X633960Y-20820D03*
X646960Y-20820D03*
D10*
X256840Y775750D03*
X221840Y775750D03*
X221840Y760750D03*
X256840Y760750D03*
D12*
X454800Y775500D03*
X454800Y762500D03*
X596800Y774730D03*
X596800Y761730D03*
D11*
X584050Y274860D03*
X597050Y274860D03*
D12*
X200530Y774410D03*
X200530Y761410D03*
D31*
X1281725Y321825D02*
X1290635Y321825D01*
X1281725Y321825D02*
X1281725Y325575D01*
X1290635Y325575D01*
X1290635Y321825D01*
X1290635Y323012D02*
X1281725Y323012D01*
X1281725Y324199D02*
X1290635Y324199D01*
X1290635Y325386D02*
X1281725Y325386D01*
X1281725Y313825D02*
X1290635Y313825D01*
X1281725Y313825D02*
X1281725Y317575D01*
X1290635Y317575D01*
X1290635Y313825D01*
X1290635Y315012D02*
X1281725Y315012D01*
X1281725Y316199D02*
X1290635Y316199D01*
X1290635Y317386D02*
X1281725Y317386D01*
X1281725Y305825D02*
X1290635Y305825D01*
X1281725Y305825D02*
X1281725Y309575D01*
X1290635Y309575D01*
X1290635Y305825D01*
X1290635Y307012D02*
X1281725Y307012D01*
X1281725Y308199D02*
X1290635Y308199D01*
X1290635Y309386D02*
X1281725Y309386D01*
X1281725Y297825D02*
X1290635Y297825D01*
X1281725Y297825D02*
X1281725Y301575D01*
X1290635Y301575D01*
X1290635Y297825D01*
X1290635Y299012D02*
X1281725Y299012D01*
X1281725Y300199D02*
X1290635Y300199D01*
X1290635Y301386D02*
X1281725Y301386D01*
X1261475Y297625D02*
X1252565Y297625D01*
X1252565Y301375D01*
X1261475Y301375D01*
X1261475Y297625D01*
X1261475Y298812D02*
X1252565Y298812D01*
X1252565Y299999D02*
X1261475Y299999D01*
X1261475Y301186D02*
X1252565Y301186D01*
X1252565Y305825D02*
X1261475Y305825D01*
X1252565Y305825D02*
X1252565Y309575D01*
X1261475Y309575D01*
X1261475Y305825D01*
X1261475Y307012D02*
X1252565Y307012D01*
X1252565Y308199D02*
X1261475Y308199D01*
X1261475Y309386D02*
X1252565Y309386D01*
X1252565Y313825D02*
X1261475Y313825D01*
X1252565Y313825D02*
X1252565Y317575D01*
X1261475Y317575D01*
X1261475Y313825D01*
X1261475Y315012D02*
X1252565Y315012D01*
X1252565Y316199D02*
X1261475Y316199D01*
X1261475Y317386D02*
X1252565Y317386D01*
X1252565Y321825D02*
X1261475Y321825D01*
X1252565Y321825D02*
X1252565Y325575D01*
X1261475Y325575D01*
X1261475Y321825D01*
X1261475Y323012D02*
X1252565Y323012D01*
X1252565Y324199D02*
X1261475Y324199D01*
X1261475Y325386D02*
X1252565Y325386D01*
D32*
X541080Y-195000D03*
X556320Y-195000D03*
D33*
X72140Y146490D03*
X84840Y146490D03*
X97540Y146490D03*
X110240Y146490D03*
X122940Y146490D03*
X135640Y146490D03*
X148340Y146490D03*
X161040Y146490D03*
X173740Y146490D03*
X186440Y146490D03*
X199140Y146490D03*
X211840Y146490D03*
X224540Y146490D03*
X237240Y146490D03*
X237240Y321490D03*
X224540Y321490D03*
X211840Y321490D03*
X199140Y321490D03*
X186440Y321490D03*
X173740Y321490D03*
X161040Y321490D03*
X148340Y321490D03*
X135640Y321490D03*
X122940Y321490D03*
X110240Y321490D03*
X97540Y321490D03*
X84840Y321490D03*
X72140Y321490D03*
D14*
X129340Y218940D03*
X116840Y206440D03*
X116840Y218940D03*
X116840Y231440D03*
X129340Y206440D03*
X129340Y231440D03*
X141840Y206440D03*
X141840Y218940D03*
X141840Y231440D03*
D34*
X697263Y196163D02*
X697263Y177137D01*
X692837Y177137D01*
X692837Y196163D01*
X697263Y196163D01*
X697263Y178538D02*
X692837Y178538D01*
X692837Y179939D02*
X697263Y179939D01*
X697263Y181340D02*
X692837Y181340D01*
X692837Y182741D02*
X697263Y182741D01*
X697263Y184142D02*
X692837Y184142D01*
X692837Y185543D02*
X697263Y185543D01*
X697263Y186944D02*
X692837Y186944D01*
X692837Y188345D02*
X697263Y188345D01*
X697263Y189746D02*
X692837Y189746D01*
X692837Y191147D02*
X697263Y191147D01*
X697263Y192548D02*
X692837Y192548D01*
X692837Y193949D02*
X697263Y193949D01*
X697263Y195350D02*
X692837Y195350D01*
X709963Y196163D02*
X709963Y177137D01*
X705537Y177137D01*
X705537Y196163D01*
X709963Y196163D01*
X709963Y178538D02*
X705537Y178538D01*
X705537Y179939D02*
X709963Y179939D01*
X709963Y181340D02*
X705537Y181340D01*
X705537Y182741D02*
X709963Y182741D01*
X709963Y184142D02*
X705537Y184142D01*
X705537Y185543D02*
X709963Y185543D01*
X709963Y186944D02*
X705537Y186944D01*
X705537Y188345D02*
X709963Y188345D01*
X709963Y189746D02*
X705537Y189746D01*
X705537Y191147D02*
X709963Y191147D01*
X709963Y192548D02*
X705537Y192548D01*
X705537Y193949D02*
X709963Y193949D01*
X709963Y195350D02*
X705537Y195350D01*
X722663Y196163D02*
X722663Y177137D01*
X718237Y177137D01*
X718237Y196163D01*
X722663Y196163D01*
X722663Y178538D02*
X718237Y178538D01*
X718237Y179939D02*
X722663Y179939D01*
X722663Y181340D02*
X718237Y181340D01*
X718237Y182741D02*
X722663Y182741D01*
X722663Y184142D02*
X718237Y184142D01*
X718237Y185543D02*
X722663Y185543D01*
X722663Y186944D02*
X718237Y186944D01*
X718237Y188345D02*
X722663Y188345D01*
X722663Y189746D02*
X718237Y189746D01*
X718237Y191147D02*
X722663Y191147D01*
X722663Y192548D02*
X718237Y192548D01*
X718237Y193949D02*
X722663Y193949D01*
X722663Y195350D02*
X718237Y195350D01*
X735363Y196163D02*
X735363Y177137D01*
X730937Y177137D01*
X730937Y196163D01*
X735363Y196163D01*
X735363Y178538D02*
X730937Y178538D01*
X730937Y179939D02*
X735363Y179939D01*
X735363Y181340D02*
X730937Y181340D01*
X730937Y182741D02*
X735363Y182741D01*
X735363Y184142D02*
X730937Y184142D01*
X730937Y185543D02*
X735363Y185543D01*
X735363Y186944D02*
X730937Y186944D01*
X730937Y188345D02*
X735363Y188345D01*
X735363Y189746D02*
X730937Y189746D01*
X730937Y191147D02*
X735363Y191147D01*
X735363Y192548D02*
X730937Y192548D01*
X730937Y193949D02*
X735363Y193949D01*
X735363Y195350D02*
X730937Y195350D01*
X748063Y196163D02*
X748063Y177137D01*
X743637Y177137D01*
X743637Y196163D01*
X748063Y196163D01*
X748063Y178538D02*
X743637Y178538D01*
X743637Y179939D02*
X748063Y179939D01*
X748063Y181340D02*
X743637Y181340D01*
X743637Y182741D02*
X748063Y182741D01*
X748063Y184142D02*
X743637Y184142D01*
X743637Y185543D02*
X748063Y185543D01*
X748063Y186944D02*
X743637Y186944D01*
X743637Y188345D02*
X748063Y188345D01*
X748063Y189746D02*
X743637Y189746D01*
X743637Y191147D02*
X748063Y191147D01*
X748063Y192548D02*
X743637Y192548D01*
X743637Y193949D02*
X748063Y193949D01*
X748063Y195350D02*
X743637Y195350D01*
X760763Y196163D02*
X760763Y177137D01*
X756337Y177137D01*
X756337Y196163D01*
X760763Y196163D01*
X760763Y178538D02*
X756337Y178538D01*
X756337Y179939D02*
X760763Y179939D01*
X760763Y181340D02*
X756337Y181340D01*
X756337Y182741D02*
X760763Y182741D01*
X760763Y184142D02*
X756337Y184142D01*
X756337Y185543D02*
X760763Y185543D01*
X760763Y186944D02*
X756337Y186944D01*
X756337Y188345D02*
X760763Y188345D01*
X760763Y189746D02*
X756337Y189746D01*
X756337Y191147D02*
X760763Y191147D01*
X760763Y192548D02*
X756337Y192548D01*
X756337Y193949D02*
X760763Y193949D01*
X760763Y195350D02*
X756337Y195350D01*
X773463Y196163D02*
X773463Y177137D01*
X769037Y177137D01*
X769037Y196163D01*
X773463Y196163D01*
X773463Y178538D02*
X769037Y178538D01*
X769037Y179939D02*
X773463Y179939D01*
X773463Y181340D02*
X769037Y181340D01*
X769037Y182741D02*
X773463Y182741D01*
X773463Y184142D02*
X769037Y184142D01*
X769037Y185543D02*
X773463Y185543D01*
X773463Y186944D02*
X769037Y186944D01*
X769037Y188345D02*
X773463Y188345D01*
X773463Y189746D02*
X769037Y189746D01*
X769037Y191147D02*
X773463Y191147D01*
X773463Y192548D02*
X769037Y192548D01*
X769037Y193949D02*
X773463Y193949D01*
X773463Y195350D02*
X769037Y195350D01*
X786163Y196163D02*
X786163Y177137D01*
X781737Y177137D01*
X781737Y196163D01*
X786163Y196163D01*
X786163Y178538D02*
X781737Y178538D01*
X781737Y179939D02*
X786163Y179939D01*
X786163Y181340D02*
X781737Y181340D01*
X781737Y182741D02*
X786163Y182741D01*
X786163Y184142D02*
X781737Y184142D01*
X781737Y185543D02*
X786163Y185543D01*
X786163Y186944D02*
X781737Y186944D01*
X781737Y188345D02*
X786163Y188345D01*
X786163Y189746D02*
X781737Y189746D01*
X781737Y191147D02*
X786163Y191147D01*
X786163Y192548D02*
X781737Y192548D01*
X781737Y193949D02*
X786163Y193949D01*
X786163Y195350D02*
X781737Y195350D01*
X786163Y270237D02*
X786163Y289263D01*
X786163Y270237D02*
X781737Y270237D01*
X781737Y289263D01*
X786163Y289263D01*
X786163Y271638D02*
X781737Y271638D01*
X781737Y273039D02*
X786163Y273039D01*
X786163Y274440D02*
X781737Y274440D01*
X781737Y275841D02*
X786163Y275841D01*
X786163Y277242D02*
X781737Y277242D01*
X781737Y278643D02*
X786163Y278643D01*
X786163Y280044D02*
X781737Y280044D01*
X781737Y281445D02*
X786163Y281445D01*
X786163Y282846D02*
X781737Y282846D01*
X781737Y284247D02*
X786163Y284247D01*
X786163Y285648D02*
X781737Y285648D01*
X781737Y287049D02*
X786163Y287049D01*
X786163Y288450D02*
X781737Y288450D01*
X773463Y289263D02*
X773463Y270237D01*
X769037Y270237D01*
X769037Y289263D01*
X773463Y289263D01*
X773463Y271638D02*
X769037Y271638D01*
X769037Y273039D02*
X773463Y273039D01*
X773463Y274440D02*
X769037Y274440D01*
X769037Y275841D02*
X773463Y275841D01*
X773463Y277242D02*
X769037Y277242D01*
X769037Y278643D02*
X773463Y278643D01*
X773463Y280044D02*
X769037Y280044D01*
X769037Y281445D02*
X773463Y281445D01*
X773463Y282846D02*
X769037Y282846D01*
X769037Y284247D02*
X773463Y284247D01*
X773463Y285648D02*
X769037Y285648D01*
X769037Y287049D02*
X773463Y287049D01*
X773463Y288450D02*
X769037Y288450D01*
X760763Y289263D02*
X760763Y270237D01*
X756337Y270237D01*
X756337Y289263D01*
X760763Y289263D01*
X760763Y271638D02*
X756337Y271638D01*
X756337Y273039D02*
X760763Y273039D01*
X760763Y274440D02*
X756337Y274440D01*
X756337Y275841D02*
X760763Y275841D01*
X760763Y277242D02*
X756337Y277242D01*
X756337Y278643D02*
X760763Y278643D01*
X760763Y280044D02*
X756337Y280044D01*
X756337Y281445D02*
X760763Y281445D01*
X760763Y282846D02*
X756337Y282846D01*
X756337Y284247D02*
X760763Y284247D01*
X760763Y285648D02*
X756337Y285648D01*
X756337Y287049D02*
X760763Y287049D01*
X760763Y288450D02*
X756337Y288450D01*
X748063Y289263D02*
X748063Y270237D01*
X743637Y270237D01*
X743637Y289263D01*
X748063Y289263D01*
X748063Y271638D02*
X743637Y271638D01*
X743637Y273039D02*
X748063Y273039D01*
X748063Y274440D02*
X743637Y274440D01*
X743637Y275841D02*
X748063Y275841D01*
X748063Y277242D02*
X743637Y277242D01*
X743637Y278643D02*
X748063Y278643D01*
X748063Y280044D02*
X743637Y280044D01*
X743637Y281445D02*
X748063Y281445D01*
X748063Y282846D02*
X743637Y282846D01*
X743637Y284247D02*
X748063Y284247D01*
X748063Y285648D02*
X743637Y285648D01*
X743637Y287049D02*
X748063Y287049D01*
X748063Y288450D02*
X743637Y288450D01*
X735363Y289263D02*
X735363Y270237D01*
X730937Y270237D01*
X730937Y289263D01*
X735363Y289263D01*
X735363Y271638D02*
X730937Y271638D01*
X730937Y273039D02*
X735363Y273039D01*
X735363Y274440D02*
X730937Y274440D01*
X730937Y275841D02*
X735363Y275841D01*
X735363Y277242D02*
X730937Y277242D01*
X730937Y278643D02*
X735363Y278643D01*
X735363Y280044D02*
X730937Y280044D01*
X730937Y281445D02*
X735363Y281445D01*
X735363Y282846D02*
X730937Y282846D01*
X730937Y284247D02*
X735363Y284247D01*
X735363Y285648D02*
X730937Y285648D01*
X730937Y287049D02*
X735363Y287049D01*
X735363Y288450D02*
X730937Y288450D01*
X722663Y289263D02*
X722663Y270237D01*
X718237Y270237D01*
X718237Y289263D01*
X722663Y289263D01*
X722663Y271638D02*
X718237Y271638D01*
X718237Y273039D02*
X722663Y273039D01*
X722663Y274440D02*
X718237Y274440D01*
X718237Y275841D02*
X722663Y275841D01*
X722663Y277242D02*
X718237Y277242D01*
X718237Y278643D02*
X722663Y278643D01*
X722663Y280044D02*
X718237Y280044D01*
X718237Y281445D02*
X722663Y281445D01*
X722663Y282846D02*
X718237Y282846D01*
X718237Y284247D02*
X722663Y284247D01*
X722663Y285648D02*
X718237Y285648D01*
X718237Y287049D02*
X722663Y287049D01*
X722663Y288450D02*
X718237Y288450D01*
X709963Y289263D02*
X709963Y270237D01*
X705537Y270237D01*
X705537Y289263D01*
X709963Y289263D01*
X709963Y271638D02*
X705537Y271638D01*
X705537Y273039D02*
X709963Y273039D01*
X709963Y274440D02*
X705537Y274440D01*
X705537Y275841D02*
X709963Y275841D01*
X709963Y277242D02*
X705537Y277242D01*
X705537Y278643D02*
X709963Y278643D01*
X709963Y280044D02*
X705537Y280044D01*
X705537Y281445D02*
X709963Y281445D01*
X709963Y282846D02*
X705537Y282846D01*
X705537Y284247D02*
X709963Y284247D01*
X709963Y285648D02*
X705537Y285648D01*
X705537Y287049D02*
X709963Y287049D01*
X709963Y288450D02*
X705537Y288450D01*
X697263Y289263D02*
X697263Y270237D01*
X692837Y270237D01*
X692837Y289263D01*
X697263Y289263D01*
X697263Y271638D02*
X692837Y271638D01*
X692837Y273039D02*
X697263Y273039D01*
X697263Y274440D02*
X692837Y274440D01*
X692837Y275841D02*
X697263Y275841D01*
X697263Y277242D02*
X692837Y277242D01*
X692837Y278643D02*
X697263Y278643D01*
X697263Y280044D02*
X692837Y280044D01*
X692837Y281445D02*
X697263Y281445D01*
X697263Y282846D02*
X692837Y282846D01*
X692837Y284247D02*
X697263Y284247D01*
X697263Y285648D02*
X692837Y285648D01*
X692837Y287049D02*
X697263Y287049D01*
X697263Y288450D02*
X692837Y288450D01*
D35*
X1115200Y-246300D03*
D36*
X1108813Y-239813D02*
X1101887Y-239813D01*
X1101887Y-237787D01*
X1108813Y-237787D01*
X1108813Y-239813D01*
X1108813Y-239172D02*
X1101887Y-239172D01*
X1101887Y-238531D02*
X1108813Y-238531D01*
X1108813Y-237890D02*
X1101887Y-237890D01*
X1101887Y-244813D02*
X1108813Y-244813D01*
X1101887Y-244813D02*
X1101887Y-242787D01*
X1108813Y-242787D01*
X1108813Y-244813D01*
X1108813Y-244172D02*
X1101887Y-244172D01*
X1101887Y-243531D02*
X1108813Y-243531D01*
X1108813Y-242890D02*
X1101887Y-242890D01*
X1101887Y-249813D02*
X1108813Y-249813D01*
X1101887Y-249813D02*
X1101887Y-247787D01*
X1108813Y-247787D01*
X1108813Y-249813D01*
X1108813Y-249172D02*
X1101887Y-249172D01*
X1101887Y-248531D02*
X1108813Y-248531D01*
X1108813Y-247890D02*
X1101887Y-247890D01*
X1101887Y-254813D02*
X1108813Y-254813D01*
X1101887Y-254813D02*
X1101887Y-252787D01*
X1108813Y-252787D01*
X1108813Y-254813D01*
X1108813Y-254172D02*
X1101887Y-254172D01*
X1101887Y-253531D02*
X1108813Y-253531D01*
X1108813Y-252890D02*
X1101887Y-252890D01*
X1121587Y-254813D02*
X1128513Y-254813D01*
X1121587Y-254813D02*
X1121587Y-252787D01*
X1128513Y-252787D01*
X1128513Y-254813D01*
X1128513Y-254172D02*
X1121587Y-254172D01*
X1121587Y-253531D02*
X1128513Y-253531D01*
X1128513Y-252890D02*
X1121587Y-252890D01*
X1121587Y-249813D02*
X1128513Y-249813D01*
X1121587Y-249813D02*
X1121587Y-247787D01*
X1128513Y-247787D01*
X1128513Y-249813D01*
X1128513Y-249172D02*
X1121587Y-249172D01*
X1121587Y-248531D02*
X1128513Y-248531D01*
X1128513Y-247890D02*
X1121587Y-247890D01*
X1121587Y-244813D02*
X1128513Y-244813D01*
X1121587Y-244813D02*
X1121587Y-242787D01*
X1128513Y-242787D01*
X1128513Y-244813D01*
X1128513Y-244172D02*
X1121587Y-244172D01*
X1121587Y-243531D02*
X1128513Y-243531D01*
X1128513Y-242890D02*
X1121587Y-242890D01*
X1121587Y-239813D02*
X1128513Y-239813D01*
X1121587Y-239813D02*
X1121587Y-237787D01*
X1128513Y-237787D01*
X1128513Y-239813D01*
X1128513Y-239172D02*
X1121587Y-239172D01*
X1121587Y-238531D02*
X1128513Y-238531D01*
X1128513Y-237890D02*
X1121587Y-237890D01*
D37*
X899200Y236400D03*
X877200Y236400D03*
D11*
X897500Y198600D03*
X884500Y198600D03*
D16*
X785500Y333700D03*
X785500Y312700D03*
D12*
X720000Y334500D03*
X720000Y321500D03*
X771600Y158500D03*
X771600Y145500D03*
D11*
X720500Y155800D03*
X707500Y155800D03*
X1075200Y65200D03*
X1088200Y65200D03*
X1075200Y39800D03*
X1088200Y39800D03*
X1075200Y14400D03*
X1088200Y14400D03*
X1075200Y-11000D03*
X1088200Y-11000D03*
X1075200Y-36400D03*
X1088200Y-36400D03*
X1075200Y-61800D03*
X1088200Y-61800D03*
D38*
X1001600Y65200D03*
X1016600Y65200D03*
X1001600Y39800D03*
X1016600Y39800D03*
X1001600Y14400D03*
X1016600Y14400D03*
X1001600Y-11000D03*
X1016600Y-11000D03*
X1001600Y-36400D03*
X1016600Y-36400D03*
X1001600Y-61800D03*
X1016600Y-61800D03*
D39*
X1689150Y-148080D03*
X1689150Y-92080D03*
D40*
X1652400Y-135080D03*
X1652400Y-125080D03*
X1652400Y-115080D03*
X1652400Y-105080D03*
D41*
X369850Y234400D03*
X355150Y234400D03*
X369850Y253600D03*
X355150Y253600D03*
D42*
X397300Y226600D02*
X405600Y226600D01*
X405600Y223300D01*
X397300Y223300D01*
X397300Y226600D01*
X397300Y224345D02*
X405600Y224345D01*
X405600Y225390D02*
X397300Y225390D01*
X397300Y226435D02*
X405600Y226435D01*
X405600Y239300D02*
X397300Y239300D01*
X405600Y239300D02*
X405600Y236000D01*
X397300Y236000D01*
X397300Y239300D01*
X397300Y237045D02*
X405600Y237045D01*
X405600Y238090D02*
X397300Y238090D01*
X397300Y239135D02*
X405600Y239135D01*
X405600Y252000D02*
X397300Y252000D01*
X405600Y252000D02*
X405600Y248700D01*
X397300Y248700D01*
X397300Y252000D01*
X397300Y249745D02*
X405600Y249745D01*
X405600Y250790D02*
X397300Y250790D01*
X397300Y251835D02*
X405600Y251835D01*
X405600Y264700D02*
X397300Y264700D01*
X405600Y264700D02*
X405600Y261400D01*
X397300Y261400D01*
X397300Y264700D01*
X397300Y262445D02*
X405600Y262445D01*
X405600Y263490D02*
X397300Y263490D01*
X397300Y264535D02*
X405600Y264535D01*
X327700Y264700D02*
X319400Y264700D01*
X327700Y264700D02*
X327700Y261400D01*
X319400Y261400D01*
X319400Y264700D01*
X319400Y262445D02*
X327700Y262445D01*
X327700Y263490D02*
X319400Y263490D01*
X319400Y264535D02*
X327700Y264535D01*
X327700Y252000D02*
X319400Y252000D01*
X327700Y252000D02*
X327700Y248700D01*
X319400Y248700D01*
X319400Y252000D01*
X319400Y249745D02*
X327700Y249745D01*
X327700Y250790D02*
X319400Y250790D01*
X319400Y251835D02*
X327700Y251835D01*
X327700Y239300D02*
X319400Y239300D01*
X327700Y239300D02*
X327700Y236000D01*
X319400Y236000D01*
X319400Y239300D01*
X319400Y237045D02*
X327700Y237045D01*
X327700Y238090D02*
X319400Y238090D01*
X319400Y239135D02*
X327700Y239135D01*
X327700Y226600D02*
X319400Y226600D01*
X327700Y226600D02*
X327700Y223300D01*
X319400Y223300D01*
X319400Y226600D01*
X319400Y224345D02*
X327700Y224345D01*
X327700Y225390D02*
X319400Y225390D01*
X319400Y226435D02*
X327700Y226435D01*
M02*
